<?xml version="1.0" encoding="UTF-8"?>
<!DOCTYPE svg PUBLIC "-//W3C//DTD SVG 1.0//EN" "http://www.w3.org/TR/2001/REC-SVG-20010904/DTD/svg10.dtd">
<!-- Creator: Redrocks Studio -->
<svg xmlns="http://www.w3.org/2000/svg" xml:space="preserve" width="124px" height="20px" version="1.0" style="shape-rendering:geometricPrecision; text-rendering:geometricPrecision; image-rendering:optimizeQuality; fill-rule:evenodd; clip-rule:evenodd"
viewBox="0 0 12400000 2000000"
 xmlns:xlink="http://www.w3.org/1999/xlink">
 <defs>
  <style type="text/css">
   <![CDATA[
    .fill {fill:white;fill-rule:nonzero}
   ]]>
  </style>
 </defs>
 <g id="main-logo">
  <metadata id="logo-layer"/>
   <path class="fill" d="M749240 0c-413760,0 -749240,324510 -749240,724900 0,498940 441980,878340 749240,1275100 293440,-377430 749230,-782030 749230,-1275100 0,-400390 -335410,-724900 -749230,-724900zm23480 731850l-586270 2390c-50,-3110 -130,-6210 -130,-9330 0,-21800 1360,-43300 3940,-64430l582350 0 110 71370zm-23490 -589000c332250,0 601580,260600 601580,582060 0,321460 -269330,582040 -601580,582040 -332240,0 -601580,-260580 -601580,-582040 0,-321460 269340,-582060 601580,-582060zm-528950 768780l-1880 -5150 -380 -92110 157680 -3430c-12240,24750 -19650,19410 -34320,49070 -11340,22890 -10760,42340 -19940,59970 -40620,1440 -64700,3900 -101160,-8350zm-30170 -123450c-1540,-12940 -2630,-26000 -3220,-39180 185000,60 432680,-4930 588650,1800l-340 31140c-156380,11580 -409020,3760 -585090,6240zm5960 -164520c4880,-25190 11530,-49780 19880,-73610l556500 0 100 73610 -576480 0zm34340 -110420c11190,-25610 24330,-50200 39250,-73630l502620 0 110 73630 -541980 0zm64890 -110430c20060,-26420 42530,-51040 67090,-73540l409720 -230 110 73770 -476920 0zm216640 419680c136630,49620 61090,259090 -83030,200840 -44940,-18160 -85590,-74170 -61680,-137820 17380,-46280 75330,-88250 144710,-63020zm551370 2170c144240,58860 53330,250290 -81620,199860 -133870,-50030 -57650,-256700 81620,-199860zm115900 98650l-19660 -49090c-41040,-111750 -255150,-127670 -276320,46760l-268010 50c-11370,-73920 -27060,-65390 -50100,-109400l235730 340c79210,-7070 -2400,-18780 51960,-26550l359670 330c5530,26850 4250,57420 3770,84900 -620,36790 -1920,44990 -37040,52660zm36550 -150560l-370550 -110c-22190,-22270 17600,16670 -8640,-13830 -20850,-24250 -18420,-8860 -43550,-20940l-1060 -410970c80240,6630 168580,51920 224740,98200 31580,26040 16100,41710 63890,48260 68910,9440 54590,7750 97500,118960 28630,74240 44580,89640 37670,180430zm-42060 -93240c3850,-16790 -34110,-120710 -46520,-141050 -21300,-34910 -103580,-28470 -178910,-28470l370 147090c36470,21020 206770,31900 225060,22430z"/>
   <path class="fill" d="M2525170 1197650l501560 -690720 145480 0 0 984750 -189810 0 0 -675450 -494640 675450 -152420 0 0 -984750 189830 0 0 690720zm1687610 -690720l0 984750 -189830 0 0 -420250 -446150 0 0 420250 -191210 0 0 -984750 191210 0 0 398070 446150 0 0 -398070 189830 0zm990660 730940c0,41610 -8310,78140 -24940,109570 -16620,31440 -39480,57780 -68580,79060 -29100,21260 -62820,37450 -101150,48540 -38340,11090 -79210,16640 -122620,16640l-475250 0 0 -984750 526500 0c34190,0 65140,7400 92840,22200 27720,14790 51270,33970 70660,57560 19410,23570 34420,50390 45040,80430 10620,30060 15940,60330 15940,90850 0,48080 -12010,93160 -36040,135230 -24000,42070 -59110,73280 -105290,93620 56350,16650 100910,46480 133700,89460 32800,43000 49190,96860 49190,161590zm-192590 -36060c0,-17580 -3010,-34450 -9020,-50630 -5990,-16190 -14070,-30280 -24230,-42300 -10170,-12020 -22180,-21490 -36040,-28440 -13840,-6930 -29100,-10400 -45720,-10400l-293730 0 0 259370 284040 0c17540,0 33940,-3250 49180,-9720 15250,-6470 28400,-15480 39480,-27040 11100,-11550 19870,-25200 26330,-40910 6470,-15720 9710,-32370 9710,-49930zm-408740 -531210l0 248270 254940 0c32320,0 59820,-11110 82430,-33290 22630,-22190 33960,-52710 33960,-91550 0,-37910 -10390,-67950 -31180,-90150 -20780,-22190 -46420,-33280 -76890,-33280l-263260 0zm1452050 653250l0 167830 -683080 0 0 -984750 670610 0 0 167830 -479400 0 0 237170 414290 0 0 155340 -414290 0 0 256580 491870 0zm69290 -331480c0,-60100 10850,-119510 32550,-178220 21710,-58720 53350,-111190 94910,-157430 41570,-46230 92380,-83680 152410,-112340 60040,-28650 128390,-42990 205060,-42990 90530,0 168800,19870 234850,59630 66050,39770 115240,91540 147560,155340l-146850 101260c-12950,-27750 -28640,-51100 -47120,-70050 -18470,-18950 -38340,-33970 -59580,-45080 -21240,-11090 -43420,-19180 -66510,-24260 -23090,-5100 -45720,-7630 -67890,-7630 -48030,0 -89830,9710 -125390,29120 -35560,19410 -65120,44620 -88680,75580 -23550,30980 -41320,66120 -53330,105420 -12010,39300 -18020,78370 -18020,117210 0,43440 6920,85300 20780,125510 13860,40220 33480,75590 58880,106100 25420,30520 55890,55010 91450,73510 35570,18490 74590,27750 117090,27750 22160,0 45260,-2790 69270,-8320 24020,-5560 46880,-14340 68580,-26360 21720,-12030 41800,-27510 60270,-46460 18480,-18970 33260,-41850 44350,-68650l156560 90140c-15710,36990 -38090,69580 -67190,97780 -29100,28210 -61890,52020 -98380,71430 -36480,19430 -75510,34220 -117080,44390 -41560,10170 -82210,15250 -121930,15250 -70200,0 -134400,-14790 -192600,-44380 -58190,-29600 -108300,-68190 -150320,-115810 -42030,-47620 -74820,-101710 -98370,-162280 -23560,-60560 -35330,-122280 -35330,-185160zm1736090 -317610l-314530 0 0 816920 -189810 0 0 -816920 -314530 0 0 -167830 818870 0 0 167830zm1390 520110l0 -167820 419820 0 0 167820 -419820 0zm605480 -687940l810560 0 0 984750 -189830 0 0 -816920 -430900 0 0 816920 -189830 0 0 -984750zm1025310 984750l0 -984750 417060 0c45260,0 87060,9480 125380,28440 38340,18950 71370,43920 99070,74890 27720,30980 49420,66120 65130,105420 15700,39300 23550,78820 23550,118580 0,41610 -7390,82060 -22170,121360 -14780,39290 -35560,74200 -62350,104720 -26790,30500 -59110,55010 -96990,73500 -37870,18500 -79440,27740 -124700,27740l-232770 0 0 330100 -191210 0zm191210 -497910l221690 0c35100,0 64430,-14340 87980,-43000 23560,-28670 35330,-67510 35330,-116510 0,-24960 -3690,-47390 -11080,-67280 -7380,-19870 -17090,-36740 -29100,-50620 -12010,-13870 -26080,-24270 -42250,-31200 -16170,-6930 -32570,-10400 -49190,-10400l-213380 0 0 319010zm1093210 504840c-72060,0 -137400,-14090 -196050,-42300 -58650,-28210 -109010,-65650 -151030,-112340 -42030,-46690 -74590,-100090 -97680,-160190 -23090,-60110 -34650,-121600 -34650,-184480 0,-65640 12240,-128520 36720,-188610 24490,-60100 58200,-113280 101150,-159510 42950,-46230 93990,-82990 153100,-110260 59120,-27280 123320,-40920 192590,-40920 71120,0 136020,14560 194680,43690 58650,29120 108760,67260 150320,114420 41570,47160 73900,100800 96990,160900 23100,60090 34650,121120 34650,183080 0,65640 -12010,128280 -36040,187930 -24000,59640 -57260,112340 -99760,158110 -42480,45770 -93290,82300 -152400,109580 -59120,27270 -123320,40900 -192590,40900zm-285420 -499310c0,42550 6460,83680 19390,123450 12930,39760 31630,74900 56120,105400 24480,30520 54490,55030 90050,73520 35580,18500 75980,27740 121250,27740 46180,0 87060,-9490 122620,-28440 35560,-18960 65570,-44150 90050,-75590 24480,-31430 42960,-66800 55430,-106100 12470,-39300 18700,-79280 18700,-119980 0,-42520 -6690,-83670 -20090,-123430 -13390,-39760 -32320,-74900 -56800,-105410 -24490,-30520 -54500,-54780 -90080,-72820 -35560,-18040 -75500,-27040 -119830,-27040 -46190,0 -87290,9480 -123330,28430 -36020,18960 -66030,43920 -90050,74900 -24010,30980 -42260,66110 -54730,105410 -12470,39290 -18700,79290 -18700,119960zm1718080 492380l0 -651870 -253570 485440 -103920 0 -253550 -485440 0 651870 -191210 0 0 -984750 205070 0 290960 560340 293750 -560340 203670 0 0 984750 -191200 0z"/>
 </g>
</svg>
